# AST/ASF file generated using VICON BodyLanguage
# -----------------------------------------------
:version 1.10
:name VICON
:units
  mass 1.0
  length 0.45
  angle deg
:documentation
   .ast/.asf automatically generated from VICON data using
   VICON BodyBuilder and BodyLanguage model FoxedUp or BRILLIANT.MOD
:root
   order TX TY TZ RX RY RZ
   axis XYZ
   position 0 0 0  
   orientation 0 0 0 
:bonedata
  begin
     id 1 
     name lhipjoint
     direction 0.645893 -0.654526 0.392961 
     length 2.38111 
     axis 0 0 0  XYZ
  end
  begin
     id 2 
     name lfemur
     direction 0.34202 -0.939693 0  
     length 6.6822  
     axis 0 0 20  XYZ
    dof rx ry rz
    limits (-160.0 20.0)
           (-70.0 70.0)
           (-60.0 70.0)
  end
  begin
     id 3 
     name ltibia
     direction 0.34202 -0.939693 0   
     length 6.93904   
     axis 0 0 20   XYZ
    dof rx
    limits (-10.0 170.0)
  end
  begin
     id 4 
     name lfoot
     direction 0.0694967 -0.190941 0.979138   
     length 2.13616   
     axis -90 7.62852e-016 20   XYZ
    dof rx rz
    limits (-45.0 90.0)
           (-70.0 20.0)
  end
  begin
     id 5 
     name ltoes
     direction 1.535e-011 -4.2202e-011 1   
     length 1.07536   
     axis -90 7.62852e-016 20   XYZ
    dof rx
    limits (-90.0 20.0)
  end
  begin
     id 6 
     name rhipjoint
     direction -0.700219 -0.612087 0.367481   
     length 2.54621  
     axis 0 0 0  XYZ 
  end
  begin
     id 7 
     name rfemur
     direction -0.34202 -0.939693 0   
     length 6.55353   
     axis 0 0 -20   XYZ
    dof rx ry rz
    limits (-160.0 20.0)
           (-70.0 70.0)
           (-70.0 60.0)
  end
  begin
     id 8 
     name rtibia
     direction -0.34202 -0.939693 0   
     length 6.8736   
     axis 0 0 -20   XYZ
    dof rx
    limits (-10.0 170.0)
 end
 begin
     id 9 
     name rfoot
     direction -0.0679995 -0.186827 0.980037   
     length 2.1218  
     axis -90 -7.62852e-016 -20   XYZ
    dof rx rz
    limits (-45.0 90.0)
           (-20.0 70.0)
  end
  begin
     id 10 
     name rtoes
     direction -1.53589e-011 -4.21772e-011 1   
     length 1.06864   
     axis -90 -7.62852e-016 -20   XYZ
    dof rx
    limits (-90.0 20.0)
  end
  begin
     id 11 
     name lowerback
     direction -0.0416607 0.996347 -0.0745409   
     length 2.12205   
     axis 0 0 0   XYZ
    dof rx ry rz
    limits (-20.0 45.0)
           (-30.0 30.0)
           (-30.0 30.0)
  end
  begin
     id 12 
     name upperback
     direction -0.000153993 0.999276 -0.0380568   
     length 2.12759   
     axis 0 0 0   XYZ
    dof rx ry rz
    limits (-20.0 45.0)
           (-30.0 30.0)
           (-30.0 30.0)
  end
  begin
     id 13 
     name thorax
     direction 0.0187671 0.999821 -0.00241421   
     length 2.13704   
     axis 0 0 0   XYZ
    dof rx ry rz
    limits (-20.0 45.0)
           (-30.0 30.0)
           (-30.0 30.0)
  end
  begin
     id 14 
     name lowerneck
     direction 0.0268157 0.964865 0.261374   
     length 1.65253   
     axis 0 0 0   XYZ
    dof rx ry rz
    limits (-20.0 45.0)
           (-30.0 30.0)
           (-30.0 30.0)
  end
  begin
     id 15 
     name upperneck
     direction 0.00263774 0.939908 -0.341418   
     length 1.72375   
     axis 0 0 0   XYZ
    dof rx ry rz
    limits (-20.0 45.0)
           (-30.0 30.0)
           (-30.0 30.0)
  end
  begin
     id 16
     name head
     direction -0.00526001 0.989001 -0.147818  
     length 1.74878  
     axis 0 0 0   XYZ
    dof rx ry rz
    limits (-20.0 45.0)
           (-30.0 30.0)
           (-30.0 30.0)
  end
  begin
     id 17 
     name lclavicle
     direction 0.881214 0.461162 -0.103884  
     length 3.25108  
     axis 0 0 0   XYZ
    dof ry rz
    limits (-20.0 10.0)
           (0.0 20.0)
  end
  begin
     id 18 
     name lhumerus
     direction 1 -4.4899e-011 3.38092e-027   
     length 4.87408   
     axis 180 -30 -90   XYZ
    dof rx ry rz
    limits (-60.0 90.0)
           (-90.0 90.0)
           (-90.0 90.0)
  end
  begin
     id 19
     name lradius
     direction 1 -4.48931e-011 9.96288e-027   
     length 2.76729   
     axis 180 -30 -90   XYZ
    dof rx
    limits (-10.0 170.0)
  end
  begin
     id 20
     name lwrist
     direction 1 -4.4896e-011 1.50617e-026   
     length 1.38364   
     axis -9.31234e-015 90 90   XYZ
    dof ry
    limits (-180.0 0.0)
 end
  begin
     id 21 
     name lhand
     direction 1 -4.49038e-011 3.01286e-026   
     length 0.98922   
     axis -1.92217e-014 90 90   XYZ
    dof rx rz
    limits (-90.0 90.0)
           (-45.0 45.0)
  end
  begin
     id 22 
     name lfingers
     direction 1 -4.49051e-011 6.02588e-026   
     length 0.797535   
     axis -3.84436e-014 90 90   XYZ
    dof rx
    limits (0.0 90.0)
  end
  begin
     id 23
     name lthumb
     direction 0.707107 -6.34901e-011 0.707107   
     length 1.14511   
     axis -90 45 2.19363e-014   XYZ
    dof rx rz
    limits (-45.0 45.0)
           (-45.0 45.0)
  end
  begin
     id 24 
     name rclavicle
     direction -0.893894 0.441652 -0.0767889   
     length 3.29361  
     axis 0 0 0   XYZ 
    dof ry rz
    limits (-10.0 20.0)
           (-20.0 0.0)
  end
  begin
     id 25 
     name rhumerus
     direction -1 -4.48945e-011 8.0491e-028  
     length 4.71404   
     axis 180 30 90   XYZ
    dof rx ry rz
    limits (-90.0 60.0)
           (-90.0 90.0)
           (-90.0 90.0)
  end
  begin
     id 26 
     name rradius
     direction -1 -4.48986e-011 9.27795e-027   
     length 2.83468   
     axis 180 30 90   XYZ
    dof rx
    limits (-10.0 170.0)
  end
  begin
     id 27 
     name rwrist
     direction -1 -4.49029e-011 1.5064e-026   
     length 1.41734   
     axis -9.31234e-015 -90 -90   XYZ
    dof ry
    limits (-180.0 0.0)
  end
  begin
     id 28
     name rhand
     direction -1 -4.48857e-011 3.01165e-026   
     length 0.868195   
     axis -1.92217e-014 -90 -90   XYZ
    dof rx rz
    limits (-90.0 90.0)
           (-45.0 45.0)
  end
  begin
     id 29
     name rfingers
     direction -1 -4.49048e-011 6.02585e-026   
     length 0.699961   
     axis -3.84436e-014 -90 -90   XYZ
    dof rx
    limits (0.0 90.0)
  end
  begin
     id 30
     name rthumb
     direction -0.707107 -6.34854e-011 0.707107   
     length 1.00501   
     axis -90 -45 -2.19363e-014   XYZ
    dof rx rz
    limits (-45.0 45.0)
           (-45.0 45.0)
  end
:hierarchy
  begin
    root lhipjoint rhipjoint lowerback
    lhipjoint lfemur
    lfemur ltibia
    ltibia lfoot
    lfoot ltoes
    rhipjoint rfemur
    rfemur rtibia
    rtibia rfoot
    rfoot rtoes
    lowerback upperback
    upperback thorax
    thorax lowerneck lclavicle rclavicle
    lowerneck upperneck
    upperneck head
    lclavicle lhumerus
    lhumerus lradius
    lradius lwrist
    lwrist lhand lthumb
    lhand lfingers
    rclavicle rhumerus
    rhumerus rradius
    rradius rwrist
    rwrist rhand rthumb
    rhand rfingers
  end

#!OML:ASF H:\ManfredObstacles\Project 1\Capture day 2\Session 1\male.ASF
:FULLY-SPECIFIED
:DEGREES
162
root 1.73244 12.5925 14.3882 -148.521 1.52238 -182.821
lowerback 22.2356 0.427816 -5.50974
upperback 5.99451 0.368554 -1.14058
thorax -5.81822 0.666959 1.76634
lowerneck -32.8372 -0.324613 2.64705
upperneck 18.8237 -2.05751 1.22679
head 11.4409 -0.557636 -0.343405
rclavicle -8.74653e-015 -2.12203e-014
rhumerus -31.4702 -32.929 -69.409
rradius 19.3455
rwrist 39.868
rhand -17.133 -5.4514
rfingers 7.12502
rthumb 9.10696 -35.2348
lclavicle -8.74653e-015 -2.12203e-014
lhumerus -56.9889 42.4283 33.1252
lradius 14.12
lwrist -86.922
lhand -17.8906 8.89414
lfingers 7.12502
lthumb 8.37587 38.7081
rfemur -68.3301 7.78253 22.0868
rtibia 92.0806
rfoot -35.9949 -28.6098
rtoes -26.9331
lfemur -70.1339 -4.8137 -22.5093
ltibia 92.2107
lfoot -13.8921 41.2738
ltoes -13.3755
163
root 1.72348 12.6575 14.2502 -148.635 1.65735 -182.906
lowerback 22.0796 0.477621 -5.4048
upperback 5.74601 0.398299 -1.21687
thorax -6.01393 0.668697 1.61617
lowerneck -33.2348 -0.361272 2.69187
upperneck 19.3816 -2.15068 1.20902
head 11.7214 -0.58316 -0.377764
rclavicle -6.01324e-015 1.50082e-014
rhumerus -27.0592 -24.2225 -76.0954
rradius 26.279
rwrist 24.0272
rhand -17.7099 -3.11676
rfingers 7.12502
rthumb 8.55031 -32.9236
lclavicle -6.01324e-015 1.50082e-014
lhumerus -45.4112 35.2685 49.6353
lradius 17.6768
lwrist -70.4923
lhand -17.7726 8.84174
lfingers 7.12502
lthumb 8.48978 38.6511
rfemur -67.1746 7.93778 21.8577
rtibia 91.3943
rfoot -35.5037 -28.8752
rtoes -27.6817
lfemur -68.8996 -4.91252 -22.6986
ltibia 91.4653
lfoot -13.5277 41.2503
ltoes -13.5142
164
root 1.71492 12.7342 14.1068 -148.763 1.74798 -183.03
lowerback 21.8868 0.5365 -5.27031
upperback 5.46227 0.440755 -1.30132
thorax -6.22957 0.674244 1.43717
lowerneck -33.7107 -0.431331 2.67361
upperneck 20.0706 -2.28849 1.26187
head 12.0712 -0.619667 -0.385115
rclavicle -1.02871e-014 8.84592e-015
rhumerus -24.6412 -18.5307 -79.591
rradius 34.1029
rwrist 12.49
rhand -16.8899 -1.4665
rfingers 7.12502
rthumb 9.34161 -31.2395
lclavicle -1.02871e-014 8.84592e-015
lhumerus -37.8284 27.0818 61.0847
lradius 23.6471
lwrist -53.5562
lhand -17.9187 7.71037
lfingers 7.12502
lthumb 8.34876 37.5254
rfemur -65.8907 8.01759 21.6101
rtibia 90.5386
rfoot -34.9888 -29.0637
rtoes -28.401
lfemur -67.5357 -4.99785 -22.9435
ltibia 90.5193
lfoot -13.1125 41.1729
ltoes -13.7107
165
root 1.70755 12.823 13.9564 -148.907 1.78873 -183.184
lowerback 21.6486 0.599628 -5.11682
upperback 5.14786 0.489301 -1.38805
thorax -6.45465 0.680229 1.24369
lowerneck -34.2285 -0.518489 2.60608
upperneck 20.8837 -2.45145 1.37079
head 12.4843 -0.65963 -0.369144
rclavicle 0 1.0461e-014
rhumerus -23.0272 -14.3575 -81.64
rradius 41.9083
rwrist 4.20796
rhand -15.3805 -1.03051
rfingers 7.12502
rthumb 10.7977 -30.733
lclavicle 0 1.0461e-014
lhumerus -33.2145 20.6016 67.8816
lradius 31.3813
lwrist -38.5793
lhand -17.743 5.69966
lfingers 7.12502
lthumb 8.51833 35.5078
rfemur -64.4708 8.02854 21.3614
rtibia 89.512
rfoot -34.409 -29.1939
rtoes -29.1117
lfemur -66.0301 -5.05662 -23.2234
ltibia 89.3639
lfoot -12.6818 41.0176
ltoes -14.003
166
root 1.70196 12.9237 13.7978 -149.076 1.78022 -183.353
lowerback 21.3574 0.657677 -4.95382
upperback 4.8129 0.532859 -1.46793
thorax -6.67297 0.68146 1.0543
lowerneck -34.8122 -0.603321 2.51074
upperneck 21.8061 -2.60699 1.47519
head 12.9608 -0.695946 -0.350125
rclavicle -7.61594e-015 2.21148e-014
rhumerus -21.7801 -10.6461 -83.0014
rradius 48.8072
rwrist -1.20065
rhand -14.0259 -1.77591
rfingers 7.12502
rthumb 12.1041 -31.4058
lclavicle -7.61594e-015 2.21148e-014
lhumerus -30.0678 16.2807 71.6714
lradius 39.3767
lwrist -27.0417
lhand -16.9131 3.54822
lfingers 7.12502
lthumb 9.31921 33.3222
rfemur -62.9135 7.99668 21.1313
rtibia 88.3193
rfoot -33.7193 -29.288
rtoes -29.817
lfemur -64.3704 -5.08098 -23.5088
ltibia 87.9989
lfoot -12.1309 40.7841
ltoes -14.4248
167
root 1.69821 13.0364 13.6291 -149.286 1.71041 -183.526
lowerback 21.0028 0.694642 -4.7732
upperback 4.47378 0.556555 -1.53375
thorax -6.86003 0.671017 0.876614
lowerneck -35.4359 -0.665494 2.42672
upperneck 22.8493 -2.73153 1.52612
head 13.5036 -0.722866 -0.348968
rclavicle 6.16232e-015 -1.30701e-014
rhumerus -20.6776 -6.96895 -83.9736
rradius 54.79
rwrist -4.58414
rhand -13.1118 -3.10958
rfingers 7.12502
rthumb 12.9854 -32.6855
lclavicle 6.16232e-015 -1.30701e-014
lhumerus -27.5292 13.172 73.8947
lradius 46.2387
lwrist -18.9825
lhand -16.2388 1.90382
lfingers 7.12502
lthumb 9.96976 31.6477
rfemur -61.1924 7.93622 20.9415
rtibia 86.9588
rfoot -32.8906 -29.3661
rtoes -30.5222
lfemur -62.5359 -5.08314 -23.7655
ltibia 86.4325
lfoot -11.4898 40.4411
ltoes -14.9248
